<svg width="38" height="38" viewBox="0 0 38 38" fill="none" xmlns="http://www.w3.org/2000/svg">
<g clip-path="url(#clip0_24_42)">
<path d="M34.2 32.8479L32.0241 8.34601C31.9775 7.80204 31.519 7.39018 30.9828 7.39018H26.5068C26.4446 3.30266 23.1031 0 19 0C14.8969 0 11.5554 3.30266 11.4933 7.39018H7.01719C6.47322 7.39018 6.0225 7.80204 5.97588 8.34601L3.80001 32.8479C3.80001 32.8789 3.79224 32.91 3.79224 32.9411C3.79224 35.7309 6.34888 38 9.49612 38H28.5039C31.6511 38 34.2078 35.7309 34.2078 32.9411C34.2078 32.91 34.2078 32.8789 34.2 32.8479ZM19 2.09816C21.9452 2.09816 24.3464 4.46053 24.4086 7.39018H13.5914C13.6536 4.46053 16.0548 2.09816 19 2.09816ZM28.5039 35.9018H9.49612C7.5223 35.9018 5.92148 34.5963 5.8904 32.9877L7.97301 9.49611H11.4855V12.6822C11.4855 13.265 11.9517 13.7313 12.5346 13.7313C13.1174 13.7313 13.5836 13.265 13.5836 12.6822V9.49611H24.4086V12.6822C24.4086 13.265 24.8749 13.7313 25.4577 13.7313C26.0405 13.7313 26.5068 13.265 26.5068 12.6822V9.49611H30.0192L32.1096 32.9877C32.0785 34.5963 30.4699 35.9018 28.5039 35.9018Z" fill="white"/>
</g>
<defs>
<clipPath id="clip0_24_42">
<rect width="38" height="38" fill="white"/>
</clipPath>
</defs>
</svg>
