<svg width="194" height="61" viewBox="0 0 194 61" fill="none" xmlns="http://www.w3.org/2000/svg">
<path d="M75.7706 59.8937H77.0771V56.6161H79.5101C80.6457 56.6161 82.5253 56.6161 82.5253 54.0454C82.5253 51.4753 80.666 51.4365 79.5101 51.4365H75.7656L75.7706 59.8937ZM77.0771 55.164V52.8246H79.7911C80.5452 52.8246 81.1987 52.9015 81.1987 53.9814C81.1987 55.0612 80.5452 55.164 79.7911 55.164H77.0771ZM84.0835 59.9002H85.4759L86.1895 57.9718H90.0593L90.7628 59.9002H92.1401L88.8883 51.4107H87.3802L84.0835 59.9002ZM86.7373 56.5585L88.1444 52.7025L89.5418 56.5585H86.7373ZM95.4171 59.9383H96.7235V56.5521H98.8093L100.769 59.9131H102.378L100.317 56.4429C100.57 56.4421 100.821 56.3759 101.054 56.2483C101.287 56.1207 101.497 55.9342 101.672 55.7001C101.847 55.466 101.983 55.1891 102.073 54.886C102.162 54.5829 102.203 54.2598 102.192 53.9361C102.192 51.8605 101.056 51.4042 99.4628 51.4042H95.4418L95.4171 59.9383ZM96.7235 55.2021V52.76H99.2667C100.342 52.76 100.89 52.9532 100.89 53.962C100.89 54.9708 100.337 55.164 99.2718 55.164L96.7235 55.2021ZM106.273 51.4107H107.58V59.8937H106.273V51.4107ZM116.862 53.9814C116.651 53.2421 116.109 52.5804 114.515 52.5804C113.621 52.5804 112.731 52.8699 112.731 53.6473C112.731 54.0072 112.902 54.3924 114.239 54.5921L115.822 54.9132C117.33 55.1956 118.214 55.9414 118.214 57.3553C118.214 59.3477 116.707 60.1186 114.917 60.1186C112.038 60.1186 111.334 58.3066 111.178 57.6636L112.434 57.1686C112.686 57.8116 113.188 58.6853 114.947 58.6853C116.028 58.6853 116.908 58.2355 116.908 57.5027C116.908 56.9566 116.405 56.6031 115.45 56.4429L113.842 56.1663C112.299 55.9091 111.439 55.0418 111.439 53.75C111.439 51.2117 114.043 51.2117 114.556 51.2117C117.451 51.2117 117.938 52.8951 118.109 53.4735L116.862 53.9814ZM167.237 38.0441C167.79 43.9435 170.212 43.0692 170.333 43.5836C170.333 43.5836 160.985 43.5836 160.985 43.5448C160.935 43.3328 163.668 43.4808 163.121 38.3013L160.683 15.2949C160.583 14.6842 160.583 14.0096 160.312 14.1382C160.12 14.2539 152.069 39.0076 152.069 39.0076C151.953 39.4128 151.752 39.6506 151.486 39.0723C151.295 38.6548 143.947 18.1222 143.947 18.1222C143.585 17.094 142.942 15.4552 142.841 15.1663C142.64 14.6519 142.338 14.588 142.379 16.3231L140.469 39.6506C140.017 43.7122 143.032 43.4033 142.982 43.654H136.388C136.302 43.4614 138.61 43.8343 139.122 39.5608L141.303 13.8164C141.143 8.8236 138.388 9.09308 138.388 8.67561H145.354L145.455 8.9522L152.853 29.4389C152.953 29.6961 153.019 29.8247 153.074 29.9533C153.29 30.5446 153.265 30.9492 153.527 30.1718L160.773 8.65623H167.473C167.524 8.95802 164.784 8.80421 164.784 13.0777L167.237 38.0441ZM14.4848 42.4139C20.9332 42.3047 20.6315 36.0841 21.0585 36.1351L19.9527 43.6094H0C0 43.4033 3.82992 43.3264 3.88501 39.8691V13.7524C3.88501 9.48534 0.281508 9.36966 0.442225 9.07369H11.7005C11.464 9.39551 7.8054 9.4149 7.8054 13.5727V40.6788C7.8054 42.6711 9.38327 42.3499 10.7003 42.4139H14.4797M56.9738 40.0106C57.3609 44.3164 59.939 43.2236 59.939 43.6346H52.7219C52.7219 43.2172 55.6117 43.6346 55.5663 39.7405V13.4952C55.6168 8.96448 52.5005 8.95802 52.4302 8.61099H59.6777L74.6901 32.2216L74.6497 13.0519C74.5491 8.42488 71.7598 8.74605 71.7148 8.50824H79.2887C79.2584 8.73959 76.273 8.83006 76.1426 13.0583L76.1123 42.748C76.1123 42.748 76.3786 44.9975 75.2981 43.2236C74.8256 42.4527 57.2553 14.1892 57.2553 14.1892C57.0946 13.9514 57.0188 14.1892 57.0041 14.9156V39.6248L56.9738 40.0106ZM32.6332 26.5794C31.9044 26.5794 32.005 26.0333 32.2814 25.1654L35.0455 16.4258C35.4225 15.2045 35.8248 15.4617 36.1013 16.5027L38.5888 25.3069C38.8304 26.284 39.1316 26.5923 38.3023 26.5923H32.6231M47.2438 39.2009L37.1616 8.80421C36.4277 7.77606 36.1564 8.9522 36.1564 8.9522C35.1511 11.8757 25.9336 40.0746 25.9336 40.0746C24.6772 43.8343 23.0437 43.391 23.0437 43.6475H29.5776C29.5776 43.2301 26.0595 43.9177 27.2658 40.0041L30.7536 29.1436C31.1205 28.456 31.1554 28.2757 32.01 28.2757H38.5439C39.3378 28.2757 39.3783 28.2757 39.7199 29.2851L43.0217 39.5673C43.987 43.6799 41.0517 43.4227 41.0921 43.7057H50.3647C50.4551 43.3522 48.9576 44.5284 47.2736 39.2907M121.511 2.63467L110.454 6.94049L121.511 0L132.603 6.94049L121.511 2.63467ZM121.511 42.3111H121.411C116.114 42.3111 112.615 35.9749 112.615 26.1037C112.615 14.7935 116.194 9.33089 121.501 9.33089C126.798 9.33089 130.407 14.8064 130.407 26.1037C130.407 35.9232 126.758 42.2342 121.501 42.2982M121.561 7.99449C119.696 7.95595 117.844 8.39504 116.113 9.2859C114.383 10.1768 112.809 11.5014 111.485 13.1818C110.161 14.8621 109.113 16.8643 108.404 19.0703C107.694 21.2763 107.337 23.6416 107.353 26.0268C107.353 35.319 112.882 43.6094 121.486 43.6094C130.091 43.6094 135.81 35.3448 135.81 26.0398C135.825 23.6519 135.465 21.2845 134.753 19.077C134.041 16.8695 132.99 14.8666 131.663 13.1862C130.337 11.5058 128.76 10.1819 127.027 9.29246C125.294 8.40306 123.439 7.96613 121.572 8.00741M95.2361 42.2342C101.478 42.1057 104.282 36.5978 104.835 36.3478C105.107 36.2379 101.79 43.5642 95.1603 43.5642C80.2839 43.5642 80.5351 26.4378 80.5351 26.4378C80.9975 14.4077 88.6619 7.23582 96.0049 8.21938C97.4645 8.40291 98.8998 8.82231 100.277 9.46595C100.955 9.74254 102.79 11.0085 103.514 10.655C104.016 10.3978 104.398 9.04849 104.519 8.95802L104.589 18.3406C104.087 18.3406 102.428 9.31796 95.3413 9.31796C89.5418 9.31796 85.1388 17.7558 85.2292 26.0268C85.3803 39.8174 92.9593 42.3047 95.2407 42.253M180.104 26.348V39.4703C180.104 42.0798 179.937 42.401 181.275 42.4139H188.642C190.441 42.2724 191.593 41.6875 192.336 40.936C194.03 39.2332 193.633 36.6754 193.975 36.5849L193.804 43.59H173.117C173.037 43.3458 176.198 44.014 176.198 38.269V14.1059C176.198 8.32213 173.283 9.22168 173.319 8.7719H193.824L194 15.6801C193.588 15.6484 194.673 10.2628 188.572 9.79359H181.767C180.591 9.79359 180.109 9.79359 180.109 12.6596V20.1145L180.138 21.7663C180.138 23.0516 180.138 23.1608 181.566 23.1608H188.15C191.467 23.1608 191.015 19.3688 191.306 19.3688V28.3662C191.015 28.3662 191.447 24.189 188.29 24.3176H181.636C180.179 24.2853 180.128 24.9599 180.128 26.2453L180.104 26.348Z" fill="white"/>
</svg>
