<svg width="45" height="45" viewBox="0 0 45 45" fill="none" xmlns="http://www.w3.org/2000/svg">
<path d="M29.4962 23.5598C28.7322 22.7644 27.8108 22.3391 26.8342 22.3391C25.8655 22.3391 24.9362 22.7565 24.1408 23.5519L21.6521 26.0328C21.4473 25.9225 21.2426 25.8201 21.0457 25.7177C20.7622 25.576 20.4944 25.4421 20.266 25.3003C17.9348 23.8197 15.8163 21.8902 13.7844 19.3936C12.7999 18.1493 12.1384 17.1018 11.658 16.0386C12.3038 15.448 12.9023 14.8337 13.4851 14.243C13.7056 14.0225 13.9261 13.7941 14.1467 13.5736C15.8005 11.9197 15.8005 9.77755 14.1467 8.12368L11.9966 5.97365C11.7525 5.7295 11.5005 5.47749 11.2642 5.22547C10.7917 4.73718 10.2955 4.23314 9.78359 3.76061C9.01966 3.00455 8.10609 2.6029 7.14527 2.6029C6.18445 2.6029 5.25513 3.00455 4.46757 3.76061C4.4597 3.76848 4.4597 3.76848 4.45182 3.77636L1.77412 6.47768C0.766049 7.48576 0.191131 8.71435 0.0651217 10.1398C-0.123892 12.4395 0.553408 14.5817 1.0732 15.9835C2.34904 19.4251 4.25493 22.6148 7.09802 26.0328C10.5475 30.1517 14.698 33.4043 19.4391 35.6961C21.2504 36.5545 23.6682 37.5705 26.3696 37.7437C26.535 37.7516 26.7082 37.7595 26.8657 37.7595C28.685 37.7595 30.2129 37.1058 31.4099 35.8064C31.4178 35.7906 31.4336 35.7827 31.4415 35.767C31.851 35.2708 32.3235 34.8219 32.8197 34.3415C33.1583 34.0186 33.5049 33.68 33.8435 33.3255C34.6232 32.5144 35.0327 31.5693 35.0327 30.6006C35.0327 29.624 34.6153 28.6868 33.8199 27.8993L29.4962 23.5598ZM32.3156 31.8528C32.3078 31.8528 32.3078 31.8607 32.3156 31.8528C32.0085 32.1836 31.6935 32.4829 31.3548 32.8136C30.8429 33.3019 30.3231 33.8138 29.8348 34.3888C29.0394 35.2393 28.1022 35.641 26.8736 35.641C26.7555 35.641 26.6295 35.641 26.5113 35.6331C24.1723 35.4835 21.9986 34.5699 20.3684 33.7902C15.9108 31.6323 11.9966 28.5687 8.74402 24.686C6.05844 21.4492 4.26281 18.4564 3.0736 15.2432C2.34117 13.2822 2.0734 11.7543 2.19153 10.3131C2.27029 9.39165 2.62469 8.62772 3.27836 7.97405L5.96393 5.28847C6.34984 4.92619 6.75937 4.72931 7.16102 4.72931C7.65719 4.72931 8.05884 5.02858 8.31086 5.2806C8.31873 5.28847 8.32661 5.29635 8.33449 5.30422C8.8149 5.75313 9.27168 6.21779 9.75209 6.71395C9.99623 6.96597 10.2483 7.21799 10.5003 7.47788L12.6503 9.62792C13.4851 10.4627 13.4851 11.2345 12.6503 12.0693C12.4219 12.2977 12.2014 12.5261 11.973 12.7466C11.3115 13.4239 10.6814 14.054 9.99623 14.6683C9.98048 14.684 9.96473 14.6919 9.95686 14.7077C9.27956 15.385 9.40556 16.0465 9.54733 16.4954C9.5552 16.5191 9.56308 16.5427 9.57095 16.5663C10.1301 17.9209 10.9177 19.1968 12.1148 20.7167L12.1226 20.7246C14.2963 23.4023 16.5881 25.4893 19.1162 27.0881C19.4391 27.2929 19.7698 27.4582 20.0849 27.6158C20.3684 27.7575 20.6361 27.8914 20.8645 28.0332C20.896 28.0489 20.9275 28.0725 20.959 28.0883C21.2268 28.2222 21.4788 28.2852 21.7387 28.2852C22.3924 28.2852 22.8019 27.8756 22.9358 27.7418L25.6293 25.0483C25.897 24.7805 26.3223 24.4576 26.8185 24.4576C27.3068 24.4576 27.7084 24.7648 27.9526 25.0326C27.9604 25.0404 27.9604 25.0404 27.9683 25.0483L32.3078 29.3878C33.1189 30.1911 33.1189 31.018 32.3156 31.8528Z" fill="white"/>
<path d="M24.3191 10.7043C26.8074 11.1222 29.0678 12.2999 30.8724 14.1044C32.6769 15.909 33.8451 18.1694 34.2725 20.6578C34.377 21.2846 34.9183 21.7215 35.5357 21.7215C35.6117 21.7215 35.6781 21.712 35.7541 21.7025C36.4569 21.5885 36.9223 20.9237 36.8083 20.2209C36.2955 17.2101 34.8708 14.4653 32.6959 12.2904C30.521 10.1155 27.7762 8.69083 24.7654 8.17796C24.0626 8.06399 23.4073 8.52937 23.2838 9.22269C23.1604 9.91602 23.6162 10.5903 24.3191 10.7043Z" fill="white"/>
<path d="M44.9477 19.8505C44.1025 14.8927 41.7661 10.3814 38.176 6.79132C34.5859 3.20124 30.0746 0.864845 25.1168 0.0195626C24.4235 -0.103906 23.7682 0.370972 23.6447 1.06429C23.5307 1.76711 23.9961 2.42244 24.6989 2.54591C29.1248 3.29622 33.1613 5.39518 36.3714 8.59586C39.5816 11.806 41.6711 15.8425 42.4214 20.2684C42.5259 20.8952 43.0672 21.3321 43.6846 21.3321C43.7605 21.3321 43.827 21.3226 43.903 21.3131C44.5963 21.2086 45.0712 20.5438 44.9477 19.8505Z" fill="white"/>
</svg>
