<svg width="68" height="52" viewBox="0 0 68 52" fill="none" xmlns="http://www.w3.org/2000/svg">
<path d="M1 11.7143C1 8.87268 2.10491 6.14746 4.07166 4.13814C6.0384 2.12882 8.70589 1 11.4873 1L18.4788 1C21.2602 1 23.9277 2.12882 25.8944 4.13814C27.8612 6.14746 28.9661 8.87268 28.9661 11.7143V15.2857C28.9661 36.7143 21.8767 51 4.49576 51C18.4788 36.85 14.9831 29.5714 14.9831 29.5714H11.4873C8.70589 29.5714 6.0384 28.4426 4.07166 26.4333C2.10491 24.424 1 21.6987 1 18.8571L1 11.7143Z" stroke="#E84393" stroke-miterlimit="10" stroke-linejoin="round"/>
<path d="M39 11.7143C39 8.87268 40.1049 6.14746 42.0717 4.13814C44.0384 2.12882 46.7059 1 49.4873 1L56.4788 1C59.2602 1 61.9277 2.12882 63.8944 4.13814C65.8612 6.14746 66.9661 8.87268 66.9661 11.7143V15.2857C66.9661 36.7143 59.8767 51 42.4958 51C56.4788 36.85 52.9831 29.5714 52.9831 29.5714H49.4873C46.7059 29.5714 44.0384 28.4426 42.0717 26.4333C40.1049 24.424 39 21.6987 39 18.8571V11.7143Z" stroke="#E84393" stroke-miterlimit="10" stroke-linejoin="round"/>
</svg>
